<svg width="140" height="30" viewBox="0 0 140 30" fill="none" xmlns="http://www.w3.org/2000/svg">
<path d="M24.3936 30.0002C22.8599 29.8298 22.8596 29.8303 22.1777 29.634C22.0234 29.5902 21.8689 29.5464 21.71 29.5012C21.5456 29.4534 21.3812 29.405 21.2119 29.3557C20.9476 29.2802 20.9474 29.2804 20.6777 29.2034C20.1981 29.0662 19.7185 28.9278 19.2393 28.7893C18.7331 28.6433 18.2262 28.4985 17.7197 28.3538C17.5124 28.2945 17.305 28.2353 17.0977 28.176C16.9942 28.1465 16.8907 28.1166 16.7842 28.0862C16.4669 27.9955 16.1492 27.9046 15.832 27.8137C13.516 27.1501 11.1961 26.5006 8.87598 25.8518C5.9142 25.0233 2.95725 24.1782 0 23.3333V6.66724C7.87857 4.39457 7.87883 4.39434 10.1514 3.78833C10.6506 3.64789 11.1493 3.50578 11.6475 3.36157C12.8268 3.02253 14.0077 2.68904 15.1895 2.35864C15.4258 2.29252 15.4258 2.2923 15.667 2.22485C16.4823 1.99693 17.2978 1.76945 18.1133 1.54224C18.4392 1.4513 18.7649 1.35975 19.0908 1.2688C19.248 1.22506 19.4054 1.18203 19.5674 1.13696C20.2762 0.938956 20.9835 0.737302 21.6875 0.522705C21.8051 0.487002 21.9228 0.451091 22.0439 0.414307C22.2568 0.349172 22.4695 0.283594 22.6816 0.216064C23.3053 0.0250275 23.7125 0.000253306 24.3936 0.000244141V30.0002ZM22.1211 16.9709C21.7794 16.9709 21.7792 16.9707 20.9229 17.1936C20.7961 17.2272 20.6728 17.2596 20.5498 17.2922C19.6466 17.5305 18.7482 17.7815 17.8545 18.053C16.5712 18.4451 15.2839 18.8126 13.9873 19.1584C12.5231 19.5488 11.0609 19.9469 9.60254 20.3586C8.95241 20.5422 8.30218 20.726 7.65039 20.9036C7.46592 20.9535 7.28647 21.0016 7.10742 21.05C6.75852 21.1454 6.40947 21.241 6.06055 21.3362C5.89091 21.3814 5.72618 21.4251 5.56152 21.469C5.33068 21.5323 5.3307 21.5329 5.10449 21.595C4.96673 21.6321 4.83293 21.6683 4.69922 21.7043C4.39441 21.8193 4.3937 21.8193 4.24219 22.1223C6.06407 22.5965 7.87405 23.1111 9.68359 23.6301C10.0064 23.7227 10.3295 23.815 10.6523 23.9075C11.2874 24.0893 11.9226 24.2714 12.5576 24.4534C13.5848 24.7478 14.6122 25.0418 15.6396 25.3352C16.2347 25.5051 16.83 25.675 17.4248 25.8459C17.8458 25.9671 18.2672 26.0881 18.6885 26.2083C18.8414 26.2518 18.9902 26.2939 19.1387 26.3362C19.3772 26.4053 19.3775 26.4052 19.6113 26.4729C19.7686 26.5175 19.9216 26.5605 20.0742 26.6038C20.7578 26.7997 20.7577 26.8005 22.1211 26.9709V16.9709ZM72.6611 11.052C72.7833 11.0527 72.9054 11.0533 73.0312 11.054C73.334 11.0557 73.6367 11.0579 73.9395 11.0608C73.853 11.8192 73.685 12.4946 73.4189 13.2112C73.3365 13.4391 73.2533 13.6668 73.1709 13.8948C73.1248 14.0212 73.0788 14.1483 73.0312 14.2786C72.734 15.0956 72.442 15.9149 72.1494 16.7336C72.0849 16.9138 72.0206 17.094 71.9541 17.2795C71.4485 18.6935 70.9556 20.1119 70.4746 21.5344C69.26 25.0881 69.2596 25.0881 67.7842 26.2122C66.9721 26.4528 65.7809 26.6026 65 26.2122V24.2424C65.2874 24.2081 65.5749 24.1743 65.8711 24.1389C66.6097 24.0186 66.6098 24.0183 67.2158 23.5989C67.7582 22.5141 67.7843 21.7448 67.4336 20.594C67.2413 20.03 67.0403 19.4695 66.8369 18.9094C66.7626 18.702 66.6883 18.4938 66.6143 18.2864C66.4202 17.7434 66.2252 17.2008 66.0293 16.6584C65.7153 15.7883 65.4037 14.917 65.0918 14.0461C64.983 13.7429 64.8731 13.44 64.7637 13.137C64.6975 12.953 64.6317 12.7689 64.5635 12.5793C64.5051 12.4175 64.4459 12.2549 64.3857 12.0881C64.2422 11.6672 64.2423 11.6666 64.0908 11.0608H66.8184C67.1213 11.8685 67.4118 12.6717 67.6768 13.4915C67.7127 13.6022 67.7481 13.7133 67.7852 13.8274C67.8604 14.0593 67.9358 14.2916 68.0107 14.5237C68.1252 14.8779 68.2402 15.2322 68.3555 15.5862C68.4289 15.8129 68.5028 16.0401 68.5762 16.2668C68.6274 16.4238 68.6274 16.424 68.6797 16.5842C68.8498 17.1131 68.996 17.6342 69.0908 18.1819C69.1174 18.0947 69.1445 18.0071 69.1719 17.9172C69.2095 17.7936 69.2474 17.6696 69.2861 17.5422C69.3286 17.4028 69.3704 17.263 69.4141 17.1194C69.5085 16.8091 69.6037 16.499 69.6982 16.1887C69.9513 15.3581 70.2034 14.5272 70.4531 13.6956C70.525 13.457 70.5243 13.4566 70.5977 13.2131C70.6905 12.905 70.783 12.5967 70.875 12.2883C70.917 12.1494 70.9597 12.0106 71.0029 11.8674C71.0398 11.7444 71.0763 11.6211 71.1143 11.4944C71.212 11.2126 71.2118 11.2123 71.3633 11.0608C71.797 11.0497 72.2275 11.0475 72.6611 11.052ZM128.192 10.8567C129.386 10.8904 130.274 11.2155 131.212 11.97C132.658 13.5259 132.728 15.1908 132.728 17.2737H125.454C126.067 19.0132 126.068 19.0134 127.424 20.0002C128.485 20.0932 129.345 20.0168 130.303 19.5461L130.909 18.9397C131.419 18.993 131.664 19.1892 132.008 19.5559C132.126 19.6801 132.127 19.6801 132.247 19.8069C132.305 19.8705 132.364 19.9347 132.424 20.0002C132.227 20.6152 132.032 20.8882 131.486 21.2317C131.375 21.3039 131.263 21.3761 131.148 21.4504C129.695 22.2554 128.308 22.3297 126.667 22.1223C125.391 21.745 124.319 20.9837 123.601 19.8577C122.765 18.3051 122.639 16.4989 122.983 14.7854C123.441 13.2821 124.25 12.1728 125.606 11.3645C126.373 10.9778 127.019 10.8353 127.869 10.8528C127.976 10.8541 128.083 10.8553 128.192 10.8567ZM48.9395 12.2727C50.8244 10.5562 53.5962 10.322 55.749 11.7053C56.7462 12.4652 57.4191 13.646 57.7275 14.8489C57.9419 16.9871 57.8435 18.906 56.5059 20.6633C55.538 21.6519 54.4429 22.1543 53.0664 22.2141C51.3876 22.2253 50.1322 21.907 48.8906 20.7229C47.7078 19.4766 47.3298 17.8854 47.3525 16.2034C47.4184 14.7039 47.8862 13.3575 48.9395 12.2727ZM137.728 11.0608H139.697V12.8792H137.728C137.738 13.8203 137.752 14.7613 137.768 15.7024C137.773 16.0226 137.777 16.3431 137.78 16.6633C137.785 17.1233 137.793 17.5833 137.802 18.0432C137.803 18.1866 137.804 18.33 137.805 18.4778C137.809 18.6779 137.809 18.6781 137.813 18.8821C137.815 18.9995 137.817 19.1175 137.818 19.2385C137.894 19.6249 138.024 19.7622 138.333 20.0002C138.679 20.055 138.68 20.0549 139.044 20.0286C139.259 20.0192 139.475 20.0099 139.697 20.0002V21.97C138.756 22.2838 137.526 22.2912 136.572 22.0002C135.752 21.548 135.422 20.8714 135.151 20.0002C135.077 19.4453 135.081 18.9021 135.093 18.343C135.094 18.1904 135.094 18.0374 135.095 17.8801C135.098 17.3969 135.107 16.9131 135.114 16.4299C135.117 16.1005 135.12 15.7711 135.122 15.4417C135.129 14.6379 135.139 13.8342 135.151 13.0305H133.485V11.0608H135.151V8.33423H137.728V11.0608ZM115.151 15.0002C116.112 13.9341 116.112 13.9344 117.064 12.8606C117.152 12.7649 117.239 12.6691 117.329 12.5706C117.586 12.2789 117.586 12.2787 117.771 11.929C118.035 11.5088 118.2 11.3098 118.637 11.0618C119.636 10.91 120.663 10.9879 121.667 11.0618C121.667 11.3643 121.667 11.3647 121.349 11.6975C121.279 11.7642 121.209 11.831 121.138 11.8997C120.723 12.3022 120.336 12.7308 119.943 13.1545C119.857 13.2475 119.77 13.34 119.682 13.4358C119.069 14.0984 118.465 14.7689 117.879 15.4553C118.122 16.1898 118.538 16.7569 118.986 17.3772C119.065 17.488 119.145 17.599 119.227 17.7131C119.665 18.3271 120.108 18.9382 120.553 19.5481C120.687 19.7328 120.687 19.7327 120.824 19.9211C120.998 20.16 121.172 20.399 121.348 20.637C121.427 20.7453 121.506 20.8534 121.588 20.9651C121.658 21.0606 121.729 21.1568 121.801 21.2551C121.97 21.5158 121.97 21.5161 122.121 21.97C119.73 22.3044 119.73 22.3048 118.967 21.7815C118.467 21.262 118.116 20.6464 117.765 20.0208C117.452 19.4855 117.081 18.9943 116.714 18.4954C116.587 18.3175 116.459 18.1386 116.333 17.9602C116.243 17.8336 116.153 17.7069 116.061 17.5764C115.653 17.8161 115.428 17.9606 115.151 18.3342C115.014 18.9546 115.017 19.566 115.019 20.1995C115.015 20.3695 115.013 20.5399 115.01 20.7151C115.003 21.1333 115.001 21.5517 115 21.97H112.424V6.51587H115C115.05 9.31572 115.1 12.1156 115.151 15.0002ZM94.8105 11.7815C96.4268 10.6805 98.8224 10.4386 100.606 11.3645C100.702 11.4125 100.798 11.4606 100.896 11.51C101.724 12.0069 102.097 12.7509 102.425 13.6379C102.522 14.2078 102.527 14.762 102.521 15.3391C102.523 15.574 102.523 15.5743 102.525 15.8137C102.53 16.3097 102.529 16.806 102.528 17.302C102.53 17.7996 102.532 18.2976 102.536 18.7952C102.538 19.1034 102.539 19.4118 102.538 19.72C102.539 19.8606 102.539 20.0019 102.54 20.1467C102.54 20.2688 102.539 20.3911 102.539 20.5168C102.575 21.0298 102.575 21.0301 102.879 21.9709H100.151C100.101 21.671 100.052 21.3708 100 21.0618C99.7657 21.2398 99.7653 21.2395 99.5264 21.4211C98.404 22.2741 97.1096 22.237 95.7578 22.1223C94.8159 21.8807 94.1613 21.2589 93.6367 20.4553C93.2318 19.6147 93.2176 18.7962 93.333 17.8801C93.6888 16.9488 94.3975 16.1887 95.3057 15.7688C96.0514 15.4796 96.7357 15.2842 97.54 15.2893C97.6746 15.2898 97.8096 15.2908 97.9482 15.2913C98.0876 15.2925 98.2275 15.2939 98.3711 15.2952C98.5128 15.2958 98.6548 15.2964 98.8008 15.2971C99.1499 15.2989 99.4995 15.3008 99.8486 15.304C99.8273 14.2416 99.8268 14.2415 99.3369 13.3254C98.6921 12.8495 98.0558 12.7735 97.2725 12.8801C96.5088 13.262 96.3884 13.4238 96.0605 14.2434H93.4854C93.6708 13.1308 93.9383 12.4739 94.8105 11.7815ZM34.8486 7.27368C43.2956 7.27368 43.2959 7.27297 44.8193 8.75024C45.9182 9.91767 46.1502 10.9061 46.1143 12.5032C46.0063 13.5598 45.6188 14.5552 44.8486 15.304C43.3258 16.5345 41.4604 16.5821 39.583 16.5442C38.9208 16.5348 38.2585 16.5255 37.5762 16.5159V21.97H34.8486V7.27368ZM62.5762 21.97H60V6.51587H62.5762V21.97ZM79.0508 11.2747C80.1395 10.5959 81.8583 10.7034 82.9824 11.2502C83.4683 11.534 83.8835 11.8325 84.2422 12.2727C84.3046 12.2124 84.3673 12.1522 84.4316 12.0901C85.5825 11.0343 86.5567 10.8189 88.1182 10.8557C89.0344 10.95 89.6997 11.2233 90.3594 11.8655C91.0757 13.0502 91.1221 13.9522 91.1045 15.3264C91.1038 15.5165 91.1032 15.7067 91.1025 15.9026C91.1004 16.4049 91.0968 16.9071 91.0918 17.4094C91.0871 17.9233 91.0853 18.4375 91.083 18.9514C91.078 19.9575 91.0699 20.9639 91.0605 21.97H88.6367C88.6345 21.7353 88.6322 21.4999 88.6299 21.2581C88.6211 20.3871 88.6093 19.5157 88.5967 18.6448C88.5916 18.268 88.5874 17.8907 88.584 17.5139C88.5789 16.9722 88.571 16.4306 88.5625 15.8889C88.5615 15.7205 88.5606 15.5517 88.5596 15.3782C88.5566 15.2206 88.5529 15.063 88.5498 14.9006C88.5481 14.7624 88.5467 14.6232 88.5449 14.4807C88.4717 14.0084 88.3072 13.72 88.0303 13.3333C87.4181 12.966 86.7562 12.94 86.0605 13.0305C85.428 13.3037 85.0545 13.6561 84.6973 14.2424C84.6032 14.8297 84.6052 15.4133 84.6045 16.0071C84.602 16.1774 84.5993 16.3482 84.5967 16.5237C84.5893 17.067 84.5861 17.6103 84.583 18.1536C84.5787 18.5224 84.5741 18.8912 84.5693 19.26C84.5581 20.1633 84.5505 21.0667 84.5449 21.97H81.9697C81.9691 21.7307 81.9684 21.4909 81.9678 21.2444C81.9645 20.3564 81.956 19.4683 81.9463 18.5803C81.9428 18.1962 81.9412 17.8121 81.9404 17.428C81.939 16.8754 81.9319 16.3223 81.9248 15.7698C81.9254 15.5981 81.9261 15.4261 81.9268 15.2493C81.916 14.2848 81.9161 14.2843 81.4609 13.4553C80.8057 13.0074 80.1715 12.9239 79.3936 13.0305C78.8955 13.2315 78.4303 13.4425 78.1816 13.9397C78.1636 14.1964 78.1547 14.4539 78.1504 14.7112C78.1474 14.8719 78.1447 15.0329 78.1416 15.1985C78.1391 15.3725 78.1364 15.5466 78.1338 15.7258C78.1306 15.9036 78.1273 16.0817 78.124 16.2649C78.1141 16.8344 78.1056 17.4043 78.0967 17.9739C78.0901 18.3593 78.0838 18.7447 78.0771 19.1301C78.0609 20.0767 78.0451 21.0234 78.0303 21.97H75.4541V11.0608H77.8789C77.9289 11.3607 77.9788 11.6609 78.0303 11.97C78.1234 11.9061 78.2166 11.8424 78.3125 11.7766C78.435 11.6936 78.5574 11.6102 78.6836 11.5247C78.8047 11.4421 78.926 11.3597 79.0508 11.2747ZM108.36 11.2747C109.058 10.7355 109.922 10.8996 110.758 10.9094V13.3333C110.298 13.352 110.298 13.3522 109.829 13.3713C108.895 13.4406 108.392 13.5782 107.728 14.2424C107.709 14.4841 107.7 14.7267 107.696 14.969C107.693 15.1236 107.69 15.2784 107.687 15.4377C107.684 15.6059 107.682 15.7742 107.68 15.9475C107.677 16.1188 107.673 16.2905 107.67 16.467C107.66 17.0165 107.65 17.566 107.642 18.1155C107.635 18.4871 107.629 18.8591 107.622 19.2307C107.606 20.1438 107.591 21.0569 107.576 21.97H105V11.0608H107.424C107.474 11.3608 107.525 11.6609 107.576 11.97C107.647 11.9062 107.719 11.8424 107.792 11.7766C107.886 11.6936 107.981 11.6102 108.078 11.5247C108.171 11.4421 108.264 11.3597 108.36 11.2747ZM99.8486 16.8206C98.4623 16.768 97.2465 16.6536 96.1367 17.5969C95.8665 18.115 95.803 18.4884 95.833 19.0686C95.9363 19.5114 96.155 19.7749 96.5283 20.0315C97.2057 20.3162 97.8945 20.227 98.5898 20.0491C98.7087 19.9816 98.8241 19.9163 98.9395 19.8508C99.4412 19.5952 99.4415 19.5945 99.6729 19.4016C99.9865 18.8503 99.9865 18.8503 99.8486 16.8206ZM53.334 12.8792C52.0379 12.6919 51.1868 12.9694 50.4551 14.0911C49.8425 15.3188 49.7879 16.8585 50.1143 18.1819C50.4923 19.0892 50.9222 19.7119 51.8184 20.1516C52.5513 20.2407 53.2612 20.2473 53.8975 19.8293C53.989 19.7557 54.0781 19.6841 54.167 19.6125C54.2585 19.5417 54.3477 19.4724 54.4365 19.4036C55.0822 18.6301 55.2078 17.7595 55.207 16.7864C55.2045 16.6589 55.2017 16.5351 55.1992 16.4114C55.2017 15.7641 55.2072 15.1794 55.0137 14.5579C54.6129 13.7937 54.1069 13.2657 53.334 12.8792ZM2.4248 20.0012C2.72723 20.0012 2.72749 20.0005 3.08203 19.9153C3.23355 19.8745 3.38126 19.8348 3.52832 19.7952C3.69663 19.7499 3.86007 19.7063 4.02344 19.6624C4.20398 19.6133 4.37946 19.5654 4.55469 19.5178C5.80946 19.1783 7.06187 18.8325 8.30762 18.4612C13.93 16.8284 13.9304 16.8277 19.5742 15.2698C19.7189 15.2298 19.8595 15.1914 20 15.1526V14.8489C16.3318 13.8079 12.6618 12.7731 8.98926 11.7473C8.57641 11.632 8.16278 11.5162 7.75 11.4006C7.25249 11.2613 6.7545 11.1225 6.25684 10.9836C5.97479 10.905 5.97471 10.9045 5.69824 10.8274C5.43358 10.7532 5.433 10.7536 5.17383 10.6809C4.9249 10.6117 4.92464 10.6111 4.68066 10.5432C3.95869 10.3416 3.95844 10.342 2.4248 10.0012V20.0012ZM128.485 12.8801C127.821 12.7711 127.387 12.823 126.78 13.1262C125.932 13.8586 125.768 14.3243 125.606 15.4553H130.151C130.1 14.9919 130.05 14.5418 130 14.092C129.618 13.4412 129.191 13.1381 128.485 12.8801ZM39.3936 9.35571C38.7757 9.36859 38.1759 9.3813 37.5762 9.3938V14.3938C38.2554 14.4002 38.915 14.4071 39.5742 14.4133C39.787 14.4162 39.9936 14.4184 40.2002 14.4211C40.3694 14.4219 40.534 14.4223 40.6982 14.4231C41.4741 14.4304 42.0538 14.3522 42.6973 13.8987C43.1308 13.4562 43.3174 13.1593 43.3965 12.5334C43.4039 11.4236 43.3445 10.8279 42.5762 10.0002C41.6877 9.4287 41.0099 9.32858 39.96 9.33911C39.6742 9.34755 39.6736 9.34744 39.3936 9.35571ZM22.1211 3.03149C21.4534 3.03149 21.4526 3.03152 18.4961 3.85669C18.3378 3.90124 18.1839 3.94431 18.0303 3.98755C17.0069 4.27448 15.9854 4.56531 14.9688 4.87524C13.4056 5.35308 11.8314 5.78763 10.2539 6.21509C10.0391 6.27327 9.82419 6.33171 9.60938 6.38989C9.44762 6.43371 9.4475 6.43389 9.28906 6.47681C7.6039 6.93325 5.92246 7.40506 4.24219 7.87915C4.3937 8.18218 4.3943 8.18236 4.67871 8.29321C4.80708 8.3285 4.93205 8.36345 5.05664 8.39771C5.27238 8.45799 5.27276 8.45771 5.48438 8.51685C5.64395 8.56008 5.79922 8.60183 5.9541 8.6438C6.45832 8.78369 6.96305 8.92369 7.46777 9.06177C7.81233 9.15594 8.15663 9.25102 8.50098 9.34595C9.00282 9.48465 9.50497 9.62335 10.0068 9.76196C11.3473 10.1309 12.6861 10.5055 14.0225 10.8889C15.1126 11.2018 16.2036 11.5114 17.2959 11.8167C17.5249 11.8805 17.7545 11.9441 17.9834 12.0081C18.3353 12.1071 18.687 12.2066 19.0391 12.3049C19.1538 12.3369 19.2656 12.3676 19.377 12.3987C20.2874 12.6563 21.1885 12.845 22.1211 13.0315V3.03149Z" fill="white"/>
</svg>
